<svg xmlns="http://www.w3.org/2000/svg" width="1024" height="1024" viewBox="0 0 1024 1024"><defs><clipPath id="c"><circle cx="512" cy="512" r="512"/></clipPath></defs><g clip-path="url(#c)"><rect width="1024" height="1024" fill="#0758f6"/><circle cx="512" cy="512" r="460" fill="#0a47ce"/><circle cx="512" cy="512" r="410" fill="#08285f"/><circle cx="512" cy="512" r="358" fill="#0b367d"/><circle cx="512" cy="512" r="307" fill="#081e47" stroke="#7ed8ff" stroke-width="26"/><circle cx="512" cy="512" r="264" fill="#071b43" stroke="#fff" stroke-width="15"/><g stroke="#8ad9ff" stroke-linecap="round"><path d="M512 266v38M512 720v38M266 512h38M720 512h38" stroke-width="20"/><path d="M389 299l19 33M635 725l-19-33M299 389l33 19M725 635l-33-19M635 299l-19 33M389 725l19-33M299 635l33-19M725 389l-33 19" stroke-width="11"/></g><path d="M512 512 396 414M512 512l82 185" fill="none" stroke="#fff" stroke-width="32" stroke-linecap="round" stroke-linejoin="round"/><circle cx="512" cy="512" r="44" fill="#ffd24d" stroke="#fff" stroke-width="12"/><g fill="#ffd24d"><circle cx="254" cy="295" r="11"/><circle cx="512" cy="175" r="11"/><circle cx="770" cy="295" r="11"/></g></g></svg>